<svg width="56" height="56" viewBox="0 0 56 56" fill="none" xmlns="http://www.w3.org/2000/svg">
<rect width="56" height="56" rx="28" fill="white" fill-opacity="0.11"/>
<path d="M40.2667 17.9246C40.2533 17.7335 40.0978 17.5868 39.9067 17.5824C35.3822 17.4357 31.4444 16.0757 28.2089 13.5424C28.0755 13.4357 27.8844 13.4357 27.7511 13.5424C24.5111 16.0757 20.5778 17.4357 16.0489 17.5824C15.8578 17.5868 15.7067 17.738 15.6889 17.9246C15.0978 25.0846 16.0044 30.6757 18.4578 35.0091C20.4533 38.5335 23.4267 41.1957 27.8133 43.378C27.8667 43.4046 27.9244 43.418 27.9778 43.418C28.0311 43.418 28.0933 43.4046 28.1422 43.378C32.5289 41.1957 35.5022 38.5335 37.4978 35.0091C39.9511 30.6757 40.8578 25.0891 40.2667 17.9246ZM27.9778 42.6268C21.9155 39.5691 15.2133 34.0046 16.4044 18.3157C20.8489 18.1157 24.7378 16.7646 27.9778 14.3068C31.2178 16.7646 35.1067 18.1113 39.5511 18.3157C40.7422 34.0046 34.0444 39.5691 27.9778 42.6268ZM38.1867 19.3335C34.4444 18.9735 31.08 17.7957 28.1867 15.8268C28.0622 15.7424 27.8933 15.7424 27.7689 15.8268C24.8711 17.7957 21.5067 18.9735 17.7689 19.3335C17.5867 19.3513 17.44 19.5024 17.4311 19.6846C17.1244 25.698 17.9867 30.4091 20.0711 34.0935C21.7555 37.0713 24.2133 39.3557 27.8 41.2802C27.8533 41.3113 27.9155 41.3246 27.9778 41.3246C28.04 41.3246 28.0978 41.3113 28.1555 41.2802C31.7422 39.3557 34.2 37.0713 35.8844 34.0935C37.9689 30.4091 38.8355 25.6935 38.5244 19.6846C38.5155 19.498 38.3689 19.3513 38.1867 19.3335ZM35.2355 33.7291C33.6489 36.5335 31.3422 38.698 27.9778 40.5335C24.6178 38.698 22.3067 36.5335 20.72 33.7291C18.7422 30.2357 17.9067 25.7557 18.16 20.0446C21.8089 19.6491 25.1067 18.4846 27.9778 16.5868C30.8489 18.4846 34.1467 19.6491 37.7955 20.0446C38.0489 25.7557 37.2089 30.2357 35.2355 33.7291ZM33.6089 27.1957C33.6533 27.0002 33.6978 26.8268 33.7333 26.6713C33.9022 25.9824 33.9911 25.6046 33.8044 25.2802C33.6178 24.9557 33.24 24.8446 32.5644 24.6446C32.4622 24.6135 32.3511 24.5824 32.2311 24.5468C32.1733 24.3557 32.1244 24.1868 32.0755 24.0313C31.8755 23.3513 31.7689 22.978 31.44 22.7913C31.1111 22.6046 30.7333 22.6935 30.0489 22.8624C29.9467 22.8891 29.8355 22.9157 29.7111 22.9424C29.5644 22.8046 29.4355 22.6846 29.32 22.5735C28.8089 22.0846 28.5289 21.8135 28.1511 21.8135C27.7733 21.8135 27.4933 22.0846 26.9822 22.5735C26.9067 22.6446 26.8222 22.7246 26.7333 22.8135C26.5378 22.7691 26.3644 22.7246 26.2089 22.6891C25.52 22.5202 25.1422 22.4313 24.8178 22.618C24.4933 22.8046 24.3822 23.1824 24.1822 23.858C24.1511 23.9602 24.12 24.0713 24.0844 24.1913C23.8933 24.2491 23.7244 24.298 23.5689 24.3468C22.8889 24.5468 22.5155 24.6535 22.3289 24.9824C22.1422 25.3113 22.2311 25.6891 22.4 26.3735C22.4267 26.4757 22.4533 26.5868 22.48 26.7113C22.3422 26.858 22.2222 26.9868 22.1111 27.1024C21.6222 27.6135 21.3511 27.8935 21.3511 28.2713C21.3511 28.6491 21.6222 28.9291 22.1111 29.4402C22.1822 29.5157 22.2622 29.6002 22.3511 29.6891C22.3067 29.8846 22.2622 30.058 22.2267 30.2135C22.0578 30.9024 21.9689 31.2802 22.1555 31.6046C22.3422 31.9291 22.72 32.0402 23.3955 32.2402C23.4978 32.2713 23.6089 32.3024 23.7289 32.338C23.7867 32.5291 23.8355 32.698 23.8844 32.8535C24.0844 33.5335 24.1911 33.9068 24.52 34.0935C24.8489 34.2802 25.2267 34.1913 25.9111 34.0224C26.0133 33.9957 26.1244 33.9691 26.2489 33.9424C26.3955 34.0802 26.5244 34.2002 26.64 34.3113C27.1511 34.8002 27.4311 35.0713 27.8089 35.0713C28.1867 35.0713 28.4667 34.8002 28.9778 34.3113C29.0533 34.2402 29.1378 34.1602 29.2267 34.0713C29.4222 34.1157 29.5955 34.1602 29.7511 34.1957C30.44 34.3646 30.8178 34.4535 31.1422 34.2668C31.4667 34.0802 31.5778 33.7024 31.7778 33.0268C31.8089 32.9246 31.84 32.8135 31.8755 32.6935C32.0667 32.6357 32.2355 32.5868 32.3911 32.538C33.0711 32.338 33.4444 32.2313 33.6311 31.9024C33.8178 31.5735 33.7289 31.1957 33.56 30.5113C33.5333 30.4091 33.5067 30.298 33.48 30.1735C33.6178 30.0268 33.7378 29.898 33.8489 29.7824C34.3378 29.2713 34.6089 28.9913 34.6089 28.6135C34.6089 28.2357 34.3378 27.9557 33.8489 27.4446C33.7778 27.3691 33.6978 27.2846 33.6133 27.1913L33.6089 27.1957ZM33.3111 29.2713C33.16 29.4268 32.9955 29.6046 32.7955 29.818C32.7111 29.9068 32.68 30.0357 32.7067 30.1557C32.7511 30.3557 32.7955 30.5335 32.8355 30.6935C32.9289 31.0668 33.0222 31.4535 32.9867 31.538C32.9289 31.6135 32.5511 31.7246 32.1822 31.8313C31.9733 31.8935 31.7422 31.9602 31.4622 32.0491C31.3467 32.0846 31.2533 32.178 31.2178 32.298C31.1555 32.4935 31.1067 32.6713 31.0622 32.8268C30.9555 33.1957 30.8444 33.578 30.7733 33.6313C30.6889 33.6668 30.3022 33.5735 29.9289 33.4802C29.72 33.4313 29.48 33.3735 29.2 33.3068C29.08 33.2802 28.9555 33.3157 28.8667 33.4002C28.7155 33.5424 28.5822 33.6668 28.4667 33.778C28.1911 34.0446 27.9022 34.3202 27.8133 34.3291C27.72 34.3157 27.4355 34.0446 27.1555 33.778C27 33.6268 26.8222 33.458 26.6089 33.2624C26.5378 33.2002 26.4489 33.1646 26.3555 33.1646C26.3289 33.1646 26.2978 33.1646 26.2711 33.1735C26.0711 33.218 25.8933 33.2624 25.7333 33.3024C25.36 33.3957 24.9733 33.4891 24.8889 33.4535C24.8133 33.3957 24.7022 33.018 24.5955 32.6491C24.5333 32.4402 24.4667 32.2091 24.3778 31.9291C24.3422 31.8135 24.2489 31.7202 24.1289 31.6846C23.9333 31.6224 23.7555 31.5735 23.6 31.5291C23.2311 31.4224 22.8489 31.3113 22.7955 31.2402C22.76 31.1557 22.8533 30.7691 22.9467 30.3957C22.9955 30.1868 23.0533 29.9468 23.12 29.6668C23.1467 29.5468 23.1111 29.4224 23.0267 29.3335C22.8844 29.1824 22.76 29.0491 22.6489 28.9335C22.3822 28.658 22.1067 28.3691 22.0978 28.2802C22.1111 28.1868 22.3822 27.9024 22.6489 27.6224C22.8 27.4668 22.9644 27.2891 23.1644 27.0757C23.2489 26.9868 23.28 26.858 23.2533 26.738C23.2089 26.538 23.1644 26.3602 23.1244 26.2002C23.0311 25.8268 22.9378 25.4402 22.9733 25.3557C23.0311 25.2802 23.4089 25.1691 23.7778 25.0624C23.9867 25.0002 24.2178 24.9335 24.4978 24.8446C24.6133 24.8091 24.7067 24.7157 24.7422 24.5957C24.8044 24.4002 24.8533 24.2224 24.8978 24.0668C25.0044 23.698 25.1155 23.3157 25.1867 23.2624C25.2711 23.2268 25.6578 23.3202 26.0311 23.4135C26.24 23.4624 26.48 23.5202 26.76 23.5868C26.88 23.6135 27.0044 23.578 27.0933 23.4935C27.2444 23.3513 27.3778 23.2268 27.4933 23.1157C27.7689 22.8491 28.0578 22.5735 28.1467 22.5646C28.24 22.578 28.5244 22.8491 28.8044 23.1157C28.96 23.2668 29.1378 23.4357 29.3511 23.6313C29.44 23.7157 29.5689 23.7468 29.6889 23.7202C29.8889 23.6757 30.0667 23.6313 30.2267 23.5913C30.6 23.498 30.9867 23.4046 31.0711 23.4402C31.1467 23.498 31.2578 23.8757 31.3644 24.2446C31.4267 24.4535 31.4933 24.6846 31.5822 24.9646C31.6178 25.0802 31.7111 25.1735 31.8311 25.2091C32.0267 25.2713 32.2044 25.3202 32.36 25.3646C32.7289 25.4713 33.1111 25.5824 33.1644 25.6535C33.2 25.738 33.1067 26.1246 33.0133 26.498C32.9644 26.7068 32.9067 26.9468 32.84 27.2268C32.8133 27.3468 32.8489 27.4713 32.9333 27.5602C33.0755 27.7113 33.2 27.8446 33.3111 27.9602C33.5778 28.2357 33.8533 28.5246 33.8622 28.6135C33.8533 28.7068 33.5778 28.9913 33.3111 29.2713ZM30.8133 26.5424C30.96 26.6891 30.96 26.9246 30.8133 27.0713L27.5378 30.3468C27.4667 30.418 27.3733 30.458 27.2755 30.458C27.1778 30.458 27.08 30.418 27.0133 30.3468L25.1467 28.4802C25 28.3335 25 28.098 25.1467 27.9513C25.2933 27.8046 25.5289 27.8046 25.6755 27.9513L27.28 29.5557L30.2889 26.5468C30.4355 26.4002 30.6711 26.4002 30.8133 26.5468V26.5424Z" fill="white"/>
</svg>
