<svg width="56" height="56" viewBox="0 0 56 56" fill="none" xmlns="http://www.w3.org/2000/svg">
<rect width="56" height="56" rx="28" fill="white" fill-opacity="0.11"/>
<g clip-path="url(#clip0_70_22170)">
<path d="M42.5462 19.9291C42.5441 19.9165 42.5446 19.9031 42.5413 19.8907C42.5322 19.8565 42.5187 19.8237 42.5012 19.793C42.4954 19.7824 42.4865 19.774 42.4794 19.7641C42.4668 19.7444 42.4526 19.7257 42.4368 19.7084C42.4272 19.6985 42.415 19.6917 42.4044 19.6828C42.3888 19.6684 42.372 19.6552 42.3543 19.6434L42.3512 19.6423L42.3486 19.6404L38.9218 17.677C38.8598 17.6415 38.7895 17.6228 38.7179 17.6228C38.6464 17.6228 38.5761 17.6415 38.514 17.677L35.0854 19.6402L35.0828 19.642L35.0797 19.6432C35.0619 19.6551 35.0451 19.6683 35.0293 19.6828C35.0188 19.6915 35.0059 19.6985 34.9972 19.7081C34.9812 19.7257 34.9668 19.7446 34.9541 19.7646C34.9473 19.7745 34.9386 19.7827 34.9328 19.793C34.9153 19.8237 34.9018 19.8565 34.8927 19.8907C34.8894 19.9027 34.8899 19.9155 34.8878 19.9277C34.8829 19.9502 34.8799 19.973 34.8789 19.9959V20.8315L31.8294 18.9218C31.8339 18.9013 31.8367 18.8804 31.8379 18.8595V15.4315C31.8368 15.4089 31.8338 15.3865 31.829 15.3645C31.8268 15.3518 31.8273 15.3384 31.824 15.326C31.8149 15.2919 31.8015 15.2592 31.784 15.2285C31.7758 15.2163 31.7669 15.2046 31.7575 15.1934C31.7462 15.1759 31.7336 15.1594 31.7197 15.1439C31.7074 15.133 31.6944 15.1228 31.6808 15.1134C31.667 15.1009 31.6522 15.0894 31.6368 15.079H31.6344L31.6328 15.0755L28.2039 13.1123C28.1418 13.0768 28.0715 13.0581 28 13.0581C27.9284 13.0581 27.8581 13.0768 27.7961 13.1123L24.3672 15.0755L24.3643 15.0776H24.362C24.3464 15.0881 24.3316 15.0997 24.3177 15.1123C24.3042 15.1216 24.2913 15.1317 24.279 15.1425C24.265 15.1582 24.2522 15.175 24.2408 15.1927C24.2316 15.2037 24.2229 15.2152 24.2148 15.2271C24.1973 15.2578 24.1838 15.2907 24.1747 15.3248C24.1715 15.3368 24.1719 15.3497 24.1698 15.3619C24.1649 15.3843 24.1619 15.4071 24.1609 15.4301V18.8595C24.1621 18.8805 24.1649 18.9014 24.1693 18.922L21.1206 20.8315V19.9962C21.1195 19.9736 21.1165 19.9512 21.1117 19.9291C21.1096 19.9165 21.11 19.9031 21.1068 19.8907C21.0977 19.8565 21.0842 19.8237 21.0667 19.793C21.0608 19.7824 21.0519 19.774 21.0449 19.7641C21.0323 19.7444 21.018 19.7257 21.0022 19.7084C20.9926 19.6985 20.9804 19.6917 20.9699 19.6828C20.9542 19.6684 20.9375 19.6552 20.9197 19.6434L20.9167 19.6423L20.9141 19.6404L17.4868 17.677C17.4248 17.6415 17.3545 17.6228 17.2829 17.6228C17.2114 17.6228 17.1411 17.6415 17.079 17.677L13.6511 19.6402L13.6485 19.642L13.6454 19.6432C13.6276 19.6551 13.6108 19.6683 13.595 19.6828C13.5845 19.6915 13.5716 19.6985 13.5629 19.7081C13.5469 19.7257 13.5325 19.7446 13.5198 19.7646C13.513 19.7745 13.5043 19.7827 13.4985 19.793C13.481 19.8237 13.4675 19.8565 13.4584 19.8907C13.4551 19.9027 13.4556 19.9155 13.4535 19.9277C13.4486 19.9502 13.4456 19.973 13.4446 19.9959V23.4239C13.4446 23.4976 13.4644 23.5698 13.502 23.6332C13.5395 23.6965 13.5935 23.7486 13.6581 23.7839L16.8725 25.5391V30.2355L13.6511 32.0805L13.6485 32.0824L13.6454 32.0836C13.6276 32.0954 13.6108 32.1087 13.595 32.1232C13.5845 32.1319 13.5716 32.1389 13.5629 32.1485C13.5469 32.1661 13.5325 32.185 13.5198 32.205C13.513 32.2148 13.5043 32.223 13.4985 32.2334C13.481 32.2641 13.4675 32.2969 13.4584 32.3311C13.4551 32.343 13.4556 32.3559 13.4535 32.3681C13.4486 32.3906 13.4456 32.4134 13.4446 32.4363V35.8643C13.4446 35.938 13.4645 36.0103 13.5022 36.0737C13.5398 36.137 13.5938 36.1891 13.6586 36.2243L17.0863 38.0953C17.1056 38.1047 17.1256 38.1125 17.1461 38.1188C17.1571 38.1227 17.1674 38.1286 17.1786 38.1314C17.2469 38.15 17.3188 38.15 17.387 38.1314C17.3983 38.1284 17.4086 38.1225 17.4196 38.1188C17.4401 38.1125 17.4601 38.1047 17.4793 38.0953L20.3898 36.5065L24.1633 39.0188V40.7187C24.1632 40.7923 24.1831 40.8646 24.2206 40.928C24.2582 40.9913 24.3121 41.0434 24.3768 41.0787L27.8045 42.9497C27.8238 42.9591 27.8438 42.9669 27.8643 42.9731C27.8753 42.9771 27.8856 42.983 27.8968 42.9858C27.9651 43.0044 28.037 43.0044 28.1052 42.9858C28.1165 42.9827 28.1268 42.9769 28.1378 42.9731C28.1583 42.9669 28.1783 42.9591 28.1975 42.9497L31.6243 41.0782C31.689 41.0429 31.7429 40.9908 31.7805 40.9275C31.818 40.8641 31.8379 40.7919 31.8379 40.7182V39.0183L35.6113 36.506L38.5218 38.0948C38.541 38.1042 38.561 38.1121 38.5815 38.1183C38.5925 38.1223 38.6029 38.1281 38.6141 38.1309C38.6823 38.1495 38.7543 38.1495 38.8225 38.1309C38.8337 38.1279 38.844 38.122 38.855 38.1183C38.8756 38.1121 38.8955 38.1042 38.9148 38.0948L42.3414 36.2243C42.406 36.189 42.4599 36.1369 42.4975 36.0736C42.5351 36.0102 42.5549 35.9379 42.5549 35.8643V32.4366C42.5538 32.414 42.5508 32.3916 42.546 32.3695C42.5439 32.3569 42.5443 32.3435 42.5411 32.3311C42.532 32.2969 42.5185 32.2641 42.501 32.2334C42.4951 32.2228 42.4862 32.2144 42.4792 32.2045C42.4666 32.1847 42.4523 32.1661 42.4365 32.1488C42.4269 32.1389 42.4147 32.1321 42.4042 32.1232C42.3885 32.1088 42.3718 32.0956 42.354 32.0838L42.351 32.0827L42.3484 32.0808L39.1269 30.2358V25.5391L42.3411 23.7846C42.4058 23.7493 42.4597 23.6972 42.4973 23.6339C42.5348 23.5706 42.5547 23.4983 42.5547 23.4246V19.9962C42.5537 19.9736 42.5509 19.9512 42.5462 19.9291ZM30.4825 37.3397L28 38.6948L25.5175 37.3397L25.4125 37.2823L28 35.8005L30.5875 37.2813L30.4825 37.3397ZM20.3003 23.1806L17.6929 24.6038V22.1107L20.3003 20.6876V23.1806ZM17.2827 30.9459L19.8702 32.4277L19.7652 32.4851L17.2827 33.8402L14.8002 32.4851L14.6952 32.4277L17.2827 30.9459ZM20.676 31.9439L17.6929 30.2353V25.5391L20.4102 24.0558L24.1621 26.497V29.4895L20.676 31.9439ZM24.9824 18.6159V16.1229L27.5898 17.547V20.0393L24.9824 18.6159ZM31.0175 18.6159L28.4101 20.0393V17.547L31.0175 16.1234V18.6159ZM28 24.784L30.5875 26.2657L30.4825 26.3231L28 27.6783L25.5175 26.3231L25.4125 26.2657L28 24.784ZM24.9824 26.9658L27.5898 28.3891V30.8829L24.9824 29.4591V26.9658ZM28.4101 28.3891L31.0175 26.9658V29.4591L28.4101 30.8829V28.3891ZM31.8379 26.497L35.5897 24.0551L38.3071 25.5391V30.2355L35.324 31.9441L31.8379 29.4895V26.497ZM38.3066 22.1107V24.6038L35.6997 23.1806V20.6876L38.3066 22.1107ZM35.6997 35.621V33.1277L38.3071 34.5511V37.0441L35.6997 35.621ZM41.1997 32.4851L38.7172 33.8402L36.2345 32.4851L36.1295 32.4277L38.717 30.9459L41.3045 32.4277L41.1997 32.4851ZM38.7172 18.5055L41.3047 19.9873L41.1997 20.0447L38.7172 21.3998L36.2345 20.0447L36.1295 19.9873L38.7172 18.5055ZM34.8936 23.5291L31.4141 25.7939L28.4101 24.0736V20.974L31.1617 19.4716L34.8791 21.7995V23.4237C34.8793 23.4593 34.8842 23.4948 34.8936 23.5291ZM28 13.9411L30.5872 15.423L28.1134 16.7735L28 16.8354L27.8865 16.7735L25.4127 15.4228L28 13.9411ZM24.8383 19.4723L27.5898 20.9747V24.0736L24.5858 25.7939L21.1063 23.5291C21.1156 23.4948 21.1204 23.4593 21.1206 23.4237V21.7995L24.8383 19.4723ZM17.2827 18.5055L19.8702 19.9873L19.7652 20.0447L17.2827 21.3998L14.8002 20.0447L14.6952 19.9873L17.2827 18.5055ZM14.2656 20.6876L16.873 22.1109V24.6038L14.2656 23.1806V20.6876ZM14.2656 33.128L16.873 34.5513V37.0444L14.2656 35.621V33.128ZM17.6933 34.5513L20.3008 33.128V35.621L17.6933 37.0441V34.5513ZM21.0979 35.9923C21.1125 35.9511 21.1204 35.9078 21.1213 35.8641V32.6344L24.5997 30.1847L27.5898 31.8169V35.0902L24.3672 36.9352L24.3646 36.937L24.3615 36.9382C24.3437 36.9501 24.3269 36.9633 24.3111 36.9778C24.3006 36.9865 24.2877 36.9935 24.279 37.0031C24.263 37.0207 24.2486 37.0396 24.2359 37.0596C24.2291 37.0695 24.2204 37.0777 24.2146 37.088C24.1971 37.1187 24.1836 37.1515 24.1745 37.1857C24.1712 37.1977 24.1717 37.2105 24.1696 37.2227C24.1647 37.2452 24.1617 37.268 24.1607 37.2909V38.033L21.0979 35.9923ZM24.9824 38.797V37.9821L27.5898 39.4055V41.8985L24.9824 40.4754V38.797ZM28.4101 41.8985V39.4057L31.0175 37.9823V40.4756L28.4101 41.8985ZM31.8379 37.2909C31.8368 37.2684 31.8338 37.246 31.829 37.2239C31.8268 37.2113 31.8273 37.1979 31.824 37.1855C31.8149 37.1513 31.8015 37.1185 31.784 37.0877C31.7781 37.0772 31.7692 37.0688 31.7622 37.0589C31.7496 37.0391 31.7353 37.0205 31.7195 37.0031C31.7099 36.9933 31.6977 36.9865 31.6872 36.9776C31.6715 36.9632 31.6547 36.95 31.637 36.9382L31.634 36.937L31.6314 36.9352L28.4101 35.0902V31.8169L31.4003 30.1847L34.8793 32.6344V35.8643C34.8802 35.908 34.8881 35.9513 34.9028 35.9925L31.8386 38.0332L31.8379 37.2909ZM39.1269 37.0439V34.5511L41.7343 33.1277V35.621L39.1269 37.0439ZM39.1269 24.6035V22.1107L41.7343 20.6876V23.1806L39.1269 24.6035Z" fill="white"/>
</g>
<defs>
<clipPath id="clip0_70_22170">
<rect width="30" height="30" fill="white" transform="translate(13 13)"/>
</clipPath>
</defs>
</svg>
