<svg width="21" height="27" viewBox="0 0 21 27" fill="none" xmlns="http://www.w3.org/2000/svg">
<path d="M6.02049 17.0848C7.35743 17.8301 8.93049 18.0306 10.4117 17.6445C11.8928 17.2583 13.1677 16.3153 13.9706 15.012C14.01 14.9455 14.0309 14.8695 14.0309 14.7922C14.0309 14.7148 14.01 14.6389 13.9706 14.5723C13.4414 13.7073 12.6989 12.9927 11.8144 12.4969C10.9298 12.0011 9.93279 11.7407 8.91876 11.7407C7.90473 11.7407 6.90769 12.0011 6.02313 12.4969C5.13858 12.9927 4.39615 13.7073 3.86697 14.5723C3.82748 14.6389 3.80664 14.7148 3.80664 14.7922C3.80664 14.8695 3.82748 14.9455 3.86697 15.012C4.39451 15.8767 5.13626 16.5907 6.02049 17.0848ZM4.71043 14.7967C5.1772 14.1119 5.80416 13.5516 6.5368 13.1643C7.26944 12.7771 8.08559 12.5747 8.91428 12.5747C9.74296 12.5747 10.5591 12.7771 11.2917 13.1643C12.0244 13.5516 12.6514 14.1119 13.1181 14.7967C12.65 15.4796 12.0226 16.0381 11.2901 16.4241C10.5577 16.81 9.7422 17.0117 8.91428 17.0117C8.08635 17.0117 7.27089 16.81 6.53842 16.4241C5.80595 16.0381 5.17853 15.4796 4.71043 14.7967Z" fill="white"/>
<path d="M14.608 4.89941H8.86526C8.76512 4.91414 8.67361 4.96439 8.60745 5.04099C8.54129 5.1176 8.50488 5.21544 8.50488 5.31666C8.50488 5.41788 8.54129 5.51572 8.60745 5.59232C8.67361 5.66893 8.76512 5.71918 8.86526 5.7339H14.608C14.7081 5.71918 14.7996 5.66893 14.8658 5.59232C14.9319 5.51572 14.9684 5.41788 14.9684 5.31666C14.9684 5.21544 14.9319 5.1176 14.8658 5.04099C14.7996 4.96439 14.7081 4.91414 14.608 4.89941Z" fill="white"/>
<path d="M18.9599 21.275L18.1165 20.5571V1.64206C18.1176 1.4276 18.0766 1.215 17.9956 1.01642C17.9146 0.817829 17.7953 0.637136 17.6445 0.484657C17.4937 0.332177 17.3143 0.210896 17.1166 0.127738C16.9189 0.0445807 16.7068 0.00117512 16.4923 0H5.95806L1.83282e-10 5.99396V6.03882V23.3118C-6.47886e-06 23.7458 0.171764 24.1621 0.477771 24.4698C0.783779 24.7775 1.19914 24.9515 1.63308 24.9539H15.1733L15.2272 25.0077C15.5029 25.34 15.8447 25.6113 16.2309 25.8044C16.617 25.9975 17.0392 26.1081 17.4704 26.1293H17.596C17.9266 26.137 18.2553 26.079 18.5633 25.9589C18.8714 25.8388 19.1525 25.6588 19.3906 25.4294C19.6328 25.1764 19.82 24.8759 19.9404 24.547C20.0609 24.2181 20.112 23.8678 20.0905 23.5182C20.0682 23.0863 19.9561 22.6637 19.7615 22.2775C19.5668 21.8913 19.2938 21.5498 18.9599 21.275ZM19.256 23.5541C19.2884 23.7858 19.2688 24.0217 19.1988 24.2449C19.1288 24.4681 19.0101 24.673 18.8513 24.8447C18.6924 25.0165 18.4974 25.1507 18.2803 25.2379C18.0632 25.3251 17.8295 25.3629 17.596 25.3487H17.5063C17.1889 25.3333 16.8781 25.2519 16.5938 25.1098C16.3096 24.9677 16.058 24.7679 15.8553 24.5232L12.5891 20.5661C13.0161 20.3121 13.4134 20.0111 13.7735 19.6688C14.0718 19.3679 14.3421 19.0406 14.5811 18.6907L18.4574 21.9479C18.6903 22.1494 18.8808 22.3951 19.0179 22.6709C19.155 22.9466 19.236 23.2468 19.256 23.5541ZM4.67493 10.5433C5.66599 9.56781 6.96455 8.96609 8.34944 8.84057C9.73434 8.71506 11.1199 9.07351 12.2702 9.85488C13.4205 10.6362 14.2643 11.7922 14.658 13.1259C15.0517 14.4596 14.9709 15.8885 14.4293 17.1693C13.8878 18.45 12.919 19.5035 11.6879 20.1502C10.4569 20.7969 9.03971 20.9968 7.6778 20.7159C6.31588 20.4351 5.09345 19.6907 4.2187 18.6098C3.34395 17.5288 2.87097 16.178 2.88033 14.7875C2.88268 13.9963 3.04259 13.2136 3.3507 12.4849C3.65882 11.7562 4.10899 11.0961 4.67493 10.5433ZM17.2909 19.8662L14.9849 17.9191C15.7353 16.4707 15.9425 14.8016 15.5689 13.2138C15.1954 11.6259 14.2657 10.2243 12.9482 9.26246C11.6308 8.30066 10.0125 7.84225 8.38636 7.97019C6.76019 8.09814 5.23355 8.804 4.08271 9.96001C3.12889 10.9167 2.47985 12.1346 2.21752 13.4598C1.9552 14.785 2.09133 16.1583 2.60874 17.4062C3.12616 18.6542 4.00166 19.7208 5.12476 20.4717C6.24785 21.2225 7.5682 21.6238 8.91915 21.6249C9.92367 21.6234 10.9158 21.403 11.8264 20.9788L14.5183 24.1194H1.34595C1.13177 24.1194 0.92636 24.0343 0.774912 23.8829C0.623463 23.7314 0.538379 23.526 0.538379 23.3118V6.78358H5.41071C5.7058 6.78358 5.98881 6.66635 6.19747 6.45769C6.40613 6.24903 6.52336 5.96602 6.52336 5.67093V0.825515H16.4923C16.5984 0.826687 16.7032 0.848738 16.8007 0.890408C16.8982 0.932079 16.9866 0.992553 17.0608 1.06838C17.1349 1.1442 17.1934 1.23389 17.2329 1.33232C17.2724 1.43076 17.2921 1.536 17.2909 1.64206V19.8662ZM5.62606 5.69785C5.62726 5.73512 5.62096 5.77226 5.60752 5.80705C5.59408 5.84184 5.57378 5.87358 5.54783 5.90036C5.52188 5.92715 5.49081 5.94845 5.45646 5.96298C5.42211 5.97752 5.3852 5.985 5.3479 5.98498H1.12162L5.66195 1.39979L5.62606 5.69785Z" fill="white"/>
<path d="M14.6077 2.48545H8.86501C8.81047 2.48423 8.75625 2.49407 8.70561 2.51438C8.65498 2.53468 8.60899 2.56504 8.57041 2.60362C8.53184 2.64219 8.50148 2.68818 8.48117 2.73882C8.46086 2.78945 8.45102 2.84367 8.45225 2.89821C8.45225 3.00768 8.49574 3.11267 8.57314 3.19008C8.65055 3.26748 8.75554 3.31097 8.86501 3.31097H14.6077C14.7172 3.31097 14.8222 3.26748 14.8996 3.19008C14.977 3.11267 15.0205 3.00768 15.0205 2.89821C15.0217 2.84367 15.0119 2.78945 14.9916 2.73882C14.9712 2.68818 14.9409 2.64219 14.9023 2.60362C14.8637 2.56504 14.8177 2.53468 14.7671 2.51438C14.7165 2.49407 14.6623 2.48423 14.6077 2.48545Z" fill="white"/>
<path d="M10.7948 14.7965C10.8002 14.4223 10.694 14.055 10.4898 13.7414C10.2856 13.4278 9.99271 13.1821 9.64837 13.0357C9.30404 12.8892 8.92388 12.8485 8.55635 12.9189C8.18882 12.9892 7.85057 13.1674 7.58469 13.4308C7.31882 13.6941 7.13738 14.0306 7.06348 14.3975C6.98958 14.7643 7.02657 15.1448 7.16975 15.4906C7.31293 15.8363 7.5558 16.1316 7.86741 16.3387C8.17903 16.5459 8.54528 16.6556 8.91948 16.6539C9.41305 16.6516 9.88601 16.4557 10.2367 16.1084C10.5874 15.7611 10.7878 15.29 10.7948 14.7965ZM7.86066 14.7965C7.85888 14.5867 7.91947 14.3811 8.03473 14.2058C8.14998 14.0305 8.31472 13.8934 8.50803 13.8119C8.70134 13.7304 8.91451 13.7081 9.12048 13.748C9.32646 13.7878 9.51596 13.8879 9.66494 14.0356C9.81391 14.1833 9.91565 14.372 9.95724 14.5776C9.99883 14.7833 9.97839 14.9966 9.89852 15.1906C9.81865 15.3846 9.68295 15.5505 9.50864 15.6672C9.33433 15.784 9.12927 15.8463 8.91948 15.8463C8.64021 15.8463 8.37225 15.736 8.17394 15.5394C7.97563 15.3427 7.86303 15.0757 7.86066 14.7965Z" fill="white"/>
</svg>
