<svg width="27" height="22" viewBox="0 0 27 22" fill="none" xmlns="http://www.w3.org/2000/svg">
<path d="M1.01721 13.7021C1.01721 13.9823 0.788768 14.2107 0.508604 14.2107C0.228441 14.2107 0 13.9823 0 13.7021V0.762906C0 0.340506 0.340506 0 0.762906 0H25.6371C26.0595 0 26.4 0.340506 26.4 0.762906V20.5554C26.4 20.9778 26.0595 21.3183 25.6371 21.3183H0.913763C0.491363 21.3183 0.150857 20.9778 0.150857 20.5554C0.150857 20.439 0.176718 20.3226 0.228441 20.2192L5.59896 9.18936C5.78429 8.81006 6.24118 8.65489 6.61616 8.84023C6.68082 8.8704 6.73685 8.90919 6.78857 8.9566L9.5471 11.4307L12.6289 6.64202C12.8573 6.28859 13.3272 6.18514 13.6806 6.41358L16.7408 8.40059L18.6977 5.14638C18.8442 4.90501 19.1545 4.82743 19.3959 4.97398C19.6373 5.12052 19.7149 5.43086 19.5683 5.67223L17.4736 9.15056C17.4736 9.15056 17.4693 9.15918 17.4606 9.17211C17.2322 9.52555 16.7624 9.629 16.4089 9.40056L13.3444 7.41355L10.241 12.241C10.2195 12.2755 10.1936 12.3056 10.1678 12.3358C9.88761 12.6504 9.40487 12.6763 9.09453 12.3961L6.36186 9.94795L1.31461 20.3097H25.3742V1.01721H1.01721V13.6978V13.7021Z" fill="white"/>
</svg>
